<mxfile host="Electron" agent="Mozilla/5.0 (Windows NT 10.0; Win64; x64) AppleWebKit/537.36 (KHTML, like Gecko) draw.io/27.0.9 Chrome/134.0.6998.205 Electron/35.4.0 Safari/537.36" version="27.0.9">
  <diagram name="Page-1" id="gW7X5l3pM9PUabElACM9">
    <mxGraphModel dx="1168" dy="634" grid="0" gridSize="10" guides="1" tooltips="1" connect="1" arrows="1" fold="1" page="1" pageScale="1" pageWidth="827" pageHeight="1169" background="#ffffff" math="0" shadow="0">
      <root>
        <mxCell id="0" />
        <mxCell id="1" parent="0" />
        <mxCell id="p1Tyolbjlcrftdn2_OF1-26" value="" style="edgeStyle=orthogonalEdgeStyle;rounded=0;orthogonalLoop=1;jettySize=auto;html=1;" edge="1" parent="1" source="p1Tyolbjlcrftdn2_OF1-1" target="p1Tyolbjlcrftdn2_OF1-13">
          <mxGeometry relative="1" as="geometry" />
        </mxCell>
        <mxCell id="p1Tyolbjlcrftdn2_OF1-1" value="&lt;font style=&quot;font-size: 16px; color: rgb(0, 0, 0);&quot;&gt;user&lt;/font&gt;" style="shape=umlActor;verticalLabelPosition=bottom;verticalAlign=top;html=1;outlineConnect=0;strokeColor=#36393d;fillColor=#f9f7ed;" vertex="1" parent="1">
          <mxGeometry x="90" y="64" width="30" height="61" as="geometry" />
        </mxCell>
        <mxCell id="p1Tyolbjlcrftdn2_OF1-4" value="&lt;font style=&quot;color: rgb(0, 0, 0); font-size: 16px;&quot;&gt;Instructor&lt;/font&gt;" style="shape=umlActor;verticalLabelPosition=bottom;verticalAlign=top;html=1;outlineConnect=0;strokeColor=#36393d;fillColor=#f9f7ed;" vertex="1" parent="1">
          <mxGeometry x="85" y="563.5" width="30" height="60" as="geometry" />
        </mxCell>
        <mxCell id="p1Tyolbjlcrftdn2_OF1-16" value="" style="edgeStyle=orthogonalEdgeStyle;rounded=0;orthogonalLoop=1;jettySize=auto;html=1;" edge="1" parent="1" source="p1Tyolbjlcrftdn2_OF1-5" target="p1Tyolbjlcrftdn2_OF1-13">
          <mxGeometry relative="1" as="geometry" />
        </mxCell>
        <mxCell id="p1Tyolbjlcrftdn2_OF1-5" value="&lt;font style=&quot;color: rgb(0, 0, 0); font-size: 16px;&quot;&gt;Student&lt;/font&gt;" style="shape=umlActor;verticalLabelPosition=bottom;verticalAlign=top;html=1;outlineConnect=0;strokeColor=#36393d;fillColor=#f9f7ed;" vertex="1" parent="1">
          <mxGeometry x="55" y="257" width="30" height="60" as="geometry" />
        </mxCell>
        <mxCell id="p1Tyolbjlcrftdn2_OF1-13" value="" style="rounded=0;whiteSpace=wrap;html=1;strokeColor=#000000;fillColor=none;" vertex="1" parent="1">
          <mxGeometry x="138" y="9.5" width="526" height="860.5" as="geometry" />
        </mxCell>
        <mxCell id="p1Tyolbjlcrftdn2_OF1-14" value="" style="endArrow=block;endFill=0;endSize=12;html=1;rounded=0;strokeColor=#000000;" edge="1" parent="1" source="p1Tyolbjlcrftdn2_OF1-4">
          <mxGeometry width="160" relative="1" as="geometry">
            <mxPoint x="279" y="278" as="sourcePoint" />
            <mxPoint x="105" y="149" as="targetPoint" />
          </mxGeometry>
        </mxCell>
        <mxCell id="p1Tyolbjlcrftdn2_OF1-15" value="" style="endArrow=block;endFill=0;endSize=12;html=1;rounded=0;strokeColor=#000000;" edge="1" parent="1" source="p1Tyolbjlcrftdn2_OF1-5">
          <mxGeometry width="160" relative="1" as="geometry">
            <mxPoint x="65" y="457" as="sourcePoint" />
            <mxPoint x="87" y="149" as="targetPoint" />
          </mxGeometry>
        </mxCell>
        <mxCell id="p1Tyolbjlcrftdn2_OF1-19" value="&lt;font style=&quot;color: rgb(0, 0, 0);&quot;&gt;log in&amp;nbsp;&lt;/font&gt;" style="ellipse;whiteSpace=wrap;html=1;fillColor=#f5f5f5;strokeColor=#000000;fontColor=#333333;" vertex="1" parent="1">
          <mxGeometry x="231" y="25" width="120" height="41" as="geometry" />
        </mxCell>
        <mxCell id="p1Tyolbjlcrftdn2_OF1-21" value="&lt;font style=&quot;color: rgb(0, 0, 0);&quot;&gt;sign up&lt;/font&gt;" style="ellipse;whiteSpace=wrap;html=1;fillColor=#f5f5f5;strokeColor=#000000;fontColor=#333333;" vertex="1" parent="1">
          <mxGeometry x="231" y="77" width="120" height="41" as="geometry" />
        </mxCell>
        <mxCell id="p1Tyolbjlcrftdn2_OF1-24" value="" style="endArrow=none;html=1;rounded=0;entryX=0;entryY=0.5;entryDx=0;entryDy=0;exitX=0.5;exitY=0.5;exitDx=0;exitDy=0;exitPerimeter=0;fillColor=#f5f5f5;strokeColor=#666666;" edge="1" parent="1" source="p1Tyolbjlcrftdn2_OF1-1" target="p1Tyolbjlcrftdn2_OF1-19">
          <mxGeometry width="50" height="50" relative="1" as="geometry">
            <mxPoint x="184" y="109" as="sourcePoint" />
            <mxPoint x="234" y="59" as="targetPoint" />
          </mxGeometry>
        </mxCell>
        <mxCell id="p1Tyolbjlcrftdn2_OF1-25" value="" style="endArrow=none;html=1;rounded=0;entryX=0;entryY=0.5;entryDx=0;entryDy=0;exitX=0.5;exitY=0.5;exitDx=0;exitDy=0;exitPerimeter=0;fillColor=#f5f5f5;strokeColor=#666666;" edge="1" parent="1" source="p1Tyolbjlcrftdn2_OF1-1" target="p1Tyolbjlcrftdn2_OF1-21">
          <mxGeometry width="50" height="50" relative="1" as="geometry">
            <mxPoint x="146" y="144" as="sourcePoint" />
            <mxPoint x="272" y="96" as="targetPoint" />
          </mxGeometry>
        </mxCell>
        <mxCell id="p1Tyolbjlcrftdn2_OF1-28" value="&lt;font style=&quot;color: rgb(0, 0, 0);&quot;&gt;Search Courses&lt;/font&gt;" style="ellipse;whiteSpace=wrap;html=1;fillColor=#f5f5f5;strokeColor=#000000;fontColor=#333333;" vertex="1" parent="1">
          <mxGeometry x="181" y="141" width="120" height="41" as="geometry" />
        </mxCell>
        <mxCell id="p1Tyolbjlcrftdn2_OF1-29" value="&lt;font style=&quot;color: rgb(0, 0, 0);&quot;&gt;View Grades&lt;/font&gt;" style="ellipse;whiteSpace=wrap;html=1;fillColor=#f5f5f5;strokeColor=#000000;fontColor=#333333;" vertex="1" parent="1">
          <mxGeometry x="305" y="261" width="120" height="41" as="geometry" />
        </mxCell>
        <mxCell id="p1Tyolbjlcrftdn2_OF1-30" value="&lt;font style=&quot;color: rgb(0, 0, 0);&quot;&gt;Update Profile&lt;/font&gt;" style="ellipse;whiteSpace=wrap;html=1;fillColor=#f5f5f5;strokeColor=#000000;fontColor=#333333;" vertex="1" parent="1">
          <mxGeometry x="179" y="419" width="120" height="41" as="geometry" />
        </mxCell>
        <mxCell id="p1Tyolbjlcrftdn2_OF1-31" value="&lt;font style=&quot;color: rgb(0, 0, 0);&quot;&gt;Participate in Discussions&lt;/font&gt;" style="ellipse;whiteSpace=wrap;html=1;fillColor=#f5f5f5;strokeColor=#000000;fontColor=#333333;" vertex="1" parent="1">
          <mxGeometry x="314" y="182" width="120" height="41" as="geometry" />
        </mxCell>
        <mxCell id="p1Tyolbjlcrftdn2_OF1-32" value="&lt;font style=&quot;color: rgb(0, 0, 0);&quot;&gt;Submit Assignments&lt;/font&gt;" style="ellipse;whiteSpace=wrap;html=1;fillColor=#f5f5f5;strokeColor=#000000;fontColor=#333333;" vertex="1" parent="1">
          <mxGeometry x="181" y="365" width="120" height="41" as="geometry" />
        </mxCell>
        <mxCell id="p1Tyolbjlcrftdn2_OF1-33" value="&lt;font style=&quot;color: rgb(0, 0, 0);&quot;&gt;Download Materials&lt;/font&gt;" style="ellipse;whiteSpace=wrap;html=1;fillColor=#f5f5f5;strokeColor=#000000;fontColor=#333333;" vertex="1" parent="1">
          <mxGeometry x="181" y="296" width="120" height="41" as="geometry" />
        </mxCell>
        <mxCell id="p1Tyolbjlcrftdn2_OF1-34" value="&lt;font style=&quot;color: rgb(0, 0, 0);&quot;&gt;Contact Instructor&lt;/font&gt;" style="ellipse;whiteSpace=wrap;html=1;fillColor=#f5f5f5;strokeColor=#000000;fontColor=#333333;" vertex="1" parent="1">
          <mxGeometry x="301" y="350" width="120" height="41" as="geometry" />
        </mxCell>
        <mxCell id="p1Tyolbjlcrftdn2_OF1-35" value="&lt;font style=&quot;color: rgb(0, 0, 0);&quot;&gt;View Course Content&lt;/font&gt;" style="ellipse;whiteSpace=wrap;html=1;fillColor=#f5f5f5;strokeColor=#000000;fontColor=#333333;" vertex="1" parent="1">
          <mxGeometry x="181" y="236" width="120" height="41" as="geometry" />
        </mxCell>
        <mxCell id="p1Tyolbjlcrftdn2_OF1-36" value="&lt;font style=&quot;color: rgb(0, 0, 0);&quot;&gt;Enroll in Course&lt;/font&gt;" style="ellipse;whiteSpace=wrap;html=1;fillColor=#f5f5f5;strokeColor=#000000;fontColor=#333333;" vertex="1" parent="1">
          <mxGeometry x="181" y="187" width="120" height="41" as="geometry" />
        </mxCell>
        <mxCell id="p1Tyolbjlcrftdn2_OF1-39" value="" style="endArrow=none;html=1;rounded=0;entryX=0.038;entryY=0.702;entryDx=0;entryDy=0;exitX=0.5;exitY=0.5;exitDx=0;exitDy=0;exitPerimeter=0;fillColor=#f5f5f5;strokeColor=#666666;entryPerimeter=0;" edge="1" parent="1" source="p1Tyolbjlcrftdn2_OF1-5" target="p1Tyolbjlcrftdn2_OF1-36">
          <mxGeometry width="50" height="50" relative="1" as="geometry">
            <mxPoint x="95" y="296" as="sourcePoint" />
            <mxPoint x="221" y="299" as="targetPoint" />
          </mxGeometry>
        </mxCell>
        <mxCell id="p1Tyolbjlcrftdn2_OF1-40" value="" style="endArrow=none;html=1;rounded=0;entryX=0;entryY=0.5;entryDx=0;entryDy=0;exitX=0.5;exitY=0.483;exitDx=0;exitDy=0;exitPerimeter=0;fillColor=#f5f5f5;strokeColor=#666666;" edge="1" parent="1" source="p1Tyolbjlcrftdn2_OF1-5" target="p1Tyolbjlcrftdn2_OF1-28">
          <mxGeometry width="50" height="50" relative="1" as="geometry">
            <mxPoint x="73" y="289" as="sourcePoint" />
            <mxPoint x="199" y="292" as="targetPoint" />
          </mxGeometry>
        </mxCell>
        <mxCell id="p1Tyolbjlcrftdn2_OF1-41" value="" style="endArrow=none;html=1;rounded=0;entryX=0;entryY=0.5;entryDx=0;entryDy=0;exitX=0.5;exitY=0.5;exitDx=0;exitDy=0;exitPerimeter=0;fillColor=#f5f5f5;strokeColor=#666666;" edge="1" parent="1" source="p1Tyolbjlcrftdn2_OF1-5" target="p1Tyolbjlcrftdn2_OF1-35">
          <mxGeometry width="50" height="50" relative="1" as="geometry">
            <mxPoint x="122" y="368" as="sourcePoint" />
            <mxPoint x="238" y="297" as="targetPoint" />
          </mxGeometry>
        </mxCell>
        <mxCell id="p1Tyolbjlcrftdn2_OF1-42" value="" style="endArrow=none;html=1;rounded=0;entryX=0;entryY=0.5;entryDx=0;entryDy=0;exitX=0.5;exitY=0.5;exitDx=0;exitDy=0;exitPerimeter=0;fillColor=#f5f5f5;strokeColor=#666666;" edge="1" parent="1" source="p1Tyolbjlcrftdn2_OF1-5" target="p1Tyolbjlcrftdn2_OF1-29">
          <mxGeometry width="50" height="50" relative="1" as="geometry">
            <mxPoint x="123" y="314" as="sourcePoint" />
            <mxPoint x="234" y="284" as="targetPoint" />
          </mxGeometry>
        </mxCell>
        <mxCell id="p1Tyolbjlcrftdn2_OF1-43" value="" style="endArrow=none;html=1;rounded=0;entryX=0;entryY=0.5;entryDx=0;entryDy=0;exitX=0.5;exitY=0.5;exitDx=0;exitDy=0;exitPerimeter=0;fillColor=#f5f5f5;strokeColor=#666666;" edge="1" parent="1" source="p1Tyolbjlcrftdn2_OF1-5" target="p1Tyolbjlcrftdn2_OF1-33">
          <mxGeometry width="50" height="50" relative="1" as="geometry">
            <mxPoint x="119" y="348" as="sourcePoint" />
            <mxPoint x="230" y="318" as="targetPoint" />
          </mxGeometry>
        </mxCell>
        <mxCell id="p1Tyolbjlcrftdn2_OF1-44" value="" style="endArrow=none;html=1;rounded=0;entryX=0;entryY=0.5;entryDx=0;entryDy=0;exitX=0.5;exitY=0.5;exitDx=0;exitDy=0;exitPerimeter=0;fillColor=#f5f5f5;strokeColor=#666666;" edge="1" parent="1" source="p1Tyolbjlcrftdn2_OF1-5" target="p1Tyolbjlcrftdn2_OF1-34">
          <mxGeometry width="50" height="50" relative="1" as="geometry">
            <mxPoint x="112" y="332" as="sourcePoint" />
            <mxPoint x="223" y="362" as="targetPoint" />
          </mxGeometry>
        </mxCell>
        <mxCell id="p1Tyolbjlcrftdn2_OF1-45" value="" style="endArrow=none;html=1;rounded=0;entryX=0.072;entryY=0.244;entryDx=0;entryDy=0;exitX=0.5;exitY=0.5;exitDx=0;exitDy=0;exitPerimeter=0;fillColor=#f5f5f5;strokeColor=#666666;entryPerimeter=0;" edge="1" parent="1" source="p1Tyolbjlcrftdn2_OF1-5" target="p1Tyolbjlcrftdn2_OF1-32">
          <mxGeometry width="50" height="50" relative="1" as="geometry">
            <mxPoint x="111" y="359" as="sourcePoint" />
            <mxPoint x="222" y="389" as="targetPoint" />
          </mxGeometry>
        </mxCell>
        <mxCell id="p1Tyolbjlcrftdn2_OF1-46" value="" style="endArrow=none;html=1;rounded=0;entryX=0;entryY=0;entryDx=0;entryDy=0;exitX=0.5;exitY=0.5;exitDx=0;exitDy=0;exitPerimeter=0;fillColor=#f5f5f5;strokeColor=#666666;" edge="1" parent="1" source="p1Tyolbjlcrftdn2_OF1-5" target="p1Tyolbjlcrftdn2_OF1-30">
          <mxGeometry width="50" height="50" relative="1" as="geometry">
            <mxPoint x="118" y="424" as="sourcePoint" />
            <mxPoint x="229" y="454" as="targetPoint" />
          </mxGeometry>
        </mxCell>
        <mxCell id="p1Tyolbjlcrftdn2_OF1-47" value="" style="endArrow=none;html=1;rounded=0;exitX=0.5;exitY=0.5;exitDx=0;exitDy=0;exitPerimeter=0;fillColor=#f5f5f5;strokeColor=#666666;" edge="1" parent="1" source="p1Tyolbjlcrftdn2_OF1-5" target="p1Tyolbjlcrftdn2_OF1-31">
          <mxGeometry width="50" height="50" relative="1" as="geometry">
            <mxPoint x="75" y="360" as="sourcePoint" />
            <mxPoint x="186" y="390" as="targetPoint" />
          </mxGeometry>
        </mxCell>
        <mxCell id="p1Tyolbjlcrftdn2_OF1-49" value="&lt;font style=&quot;color: rgb(0, 0, 0);&quot;&gt;Evaluate assignments&lt;/font&gt;" style="ellipse;whiteSpace=wrap;html=1;fillColor=#f5f5f5;strokeColor=#000000;fontColor=#333333;" vertex="1" parent="1">
          <mxGeometry x="299" y="695" width="124" height="47" as="geometry" />
        </mxCell>
        <mxCell id="p1Tyolbjlcrftdn2_OF1-50" value="&lt;font style=&quot;color: rgb(0, 0, 0);&quot;&gt;View students grades&lt;/font&gt;" style="ellipse;whiteSpace=wrap;html=1;fillColor=#f5f5f5;strokeColor=#000000;fontColor=#333333;" vertex="1" parent="1">
          <mxGeometry x="174" y="740" width="125" height="46" as="geometry" />
        </mxCell>
        <mxCell id="p1Tyolbjlcrftdn2_OF1-51" value="&lt;font style=&quot;color: rgb(0, 0, 0);&quot;&gt;Analyse the performance of students&lt;/font&gt;" style="ellipse;whiteSpace=wrap;html=1;fillColor=#f5f5f5;strokeColor=#000000;fontColor=#333333;" vertex="1" parent="1">
          <mxGeometry x="301" y="614" width="120" height="48" as="geometry" />
        </mxCell>
        <mxCell id="p1Tyolbjlcrftdn2_OF1-52" value="&lt;font style=&quot;color: rgb(0, 0, 0);&quot;&gt;Add assistant teachers&lt;/font&gt;" style="ellipse;whiteSpace=wrap;html=1;fillColor=#f5f5f5;strokeColor=#000000;fontColor=#333333;" vertex="1" parent="1">
          <mxGeometry x="170" y="692" width="120" height="41" as="geometry" />
        </mxCell>
        <mxCell id="p1Tyolbjlcrftdn2_OF1-53" value="&lt;font style=&quot;color: rgb(0, 0, 0);&quot;&gt;Edit course info&lt;/font&gt;" style="ellipse;whiteSpace=wrap;html=1;fillColor=#f5f5f5;strokeColor=#000000;fontColor=#333333;" vertex="1" parent="1">
          <mxGeometry x="174" y="642" width="120" height="41" as="geometry" />
        </mxCell>
        <mxCell id="p1Tyolbjlcrftdn2_OF1-54" value="&lt;font style=&quot;color: rgb(0, 0, 0);&quot;&gt;Communicate with students&lt;/font&gt;" style="ellipse;whiteSpace=wrap;html=1;fillColor=#f5f5f5;strokeColor=#000000;fontColor=#333333;" vertex="1" parent="1">
          <mxGeometry x="294" y="557" width="120" height="41" as="geometry" />
        </mxCell>
        <mxCell id="p1Tyolbjlcrftdn2_OF1-55" value="&lt;font style=&quot;color: rgb(0, 0, 0);&quot;&gt;Create assignments&lt;/font&gt;" style="ellipse;whiteSpace=wrap;html=1;fillColor=#f5f5f5;strokeColor=#000000;fontColor=#333333;" vertex="1" parent="1">
          <mxGeometry x="173" y="592" width="120" height="41" as="geometry" />
        </mxCell>
        <mxCell id="p1Tyolbjlcrftdn2_OF1-56" value="&lt;font style=&quot;color: rgb(0, 0, 0);&quot;&gt;Manage Course&lt;/font&gt;" style="ellipse;whiteSpace=wrap;html=1;fillColor=#f5f5f5;strokeColor=#000000;fontColor=#333333;" vertex="1" parent="1">
          <mxGeometry x="173" y="534" width="120" height="41" as="geometry" />
        </mxCell>
        <mxCell id="p1Tyolbjlcrftdn2_OF1-57" value="&lt;font style=&quot;color: rgb(0, 0, 0);&quot;&gt;Create Course&lt;/font&gt;" style="ellipse;whiteSpace=wrap;html=1;fillColor=#f5f5f5;strokeColor=#000000;fontColor=#333333;" vertex="1" parent="1">
          <mxGeometry x="173" y="488" width="120" height="41" as="geometry" />
        </mxCell>
        <mxCell id="p1Tyolbjlcrftdn2_OF1-59" value="" style="endArrow=none;html=1;rounded=0;entryX=0;entryY=0.5;entryDx=0;entryDy=0;exitX=0.5;exitY=0.5;exitDx=0;exitDy=0;exitPerimeter=0;fillColor=#f5f5f5;strokeColor=#666666;" edge="1" parent="1" source="p1Tyolbjlcrftdn2_OF1-4" target="p1Tyolbjlcrftdn2_OF1-57">
          <mxGeometry width="50" height="50" relative="1" as="geometry">
            <mxPoint x="442" y="509" as="sourcePoint" />
            <mxPoint x="568" y="647" as="targetPoint" />
          </mxGeometry>
        </mxCell>
        <mxCell id="p1Tyolbjlcrftdn2_OF1-60" value="" style="endArrow=none;html=1;rounded=0;entryX=0.065;entryY=0.712;entryDx=0;entryDy=0;exitX=0.5;exitY=0.5;exitDx=0;exitDy=0;exitPerimeter=0;fillColor=#f5f5f5;strokeColor=#666666;entryPerimeter=0;" edge="1" parent="1" source="p1Tyolbjlcrftdn2_OF1-4" target="p1Tyolbjlcrftdn2_OF1-56">
          <mxGeometry width="50" height="50" relative="1" as="geometry">
            <mxPoint x="122" y="610" as="sourcePoint" />
            <mxPoint x="248" y="748" as="targetPoint" />
          </mxGeometry>
        </mxCell>
        <mxCell id="p1Tyolbjlcrftdn2_OF1-61" value="" style="endArrow=none;html=1;rounded=0;exitX=0.5;exitY=0.5;exitDx=0;exitDy=0;exitPerimeter=0;fillColor=#f5f5f5;strokeColor=#666666;entryX=0;entryY=0.5;entryDx=0;entryDy=0;" edge="1" parent="1" source="p1Tyolbjlcrftdn2_OF1-4" target="p1Tyolbjlcrftdn2_OF1-54">
          <mxGeometry width="50" height="50" relative="1" as="geometry">
            <mxPoint x="100" y="600" as="sourcePoint" />
            <mxPoint x="181" y="569" as="targetPoint" />
          </mxGeometry>
        </mxCell>
        <mxCell id="p1Tyolbjlcrftdn2_OF1-62" value="" style="endArrow=none;html=1;rounded=0;exitX=0.5;exitY=0.5;exitDx=0;exitDy=0;exitPerimeter=0;fillColor=#f5f5f5;strokeColor=#666666;entryX=0;entryY=0.5;entryDx=0;entryDy=0;" edge="1" parent="1" source="p1Tyolbjlcrftdn2_OF1-4" target="p1Tyolbjlcrftdn2_OF1-55">
          <mxGeometry width="50" height="50" relative="1" as="geometry">
            <mxPoint x="148" y="614" as="sourcePoint" />
            <mxPoint x="342" y="598" as="targetPoint" />
          </mxGeometry>
        </mxCell>
        <mxCell id="p1Tyolbjlcrftdn2_OF1-63" value="" style="endArrow=none;html=1;rounded=0;exitX=0.5;exitY=0.5;exitDx=0;exitDy=0;exitPerimeter=0;fillColor=#f5f5f5;strokeColor=#666666;entryX=0;entryY=0.5;entryDx=0;entryDy=0;" edge="1" parent="1" source="p1Tyolbjlcrftdn2_OF1-4" target="p1Tyolbjlcrftdn2_OF1-53">
          <mxGeometry width="50" height="50" relative="1" as="geometry">
            <mxPoint x="120" y="634" as="sourcePoint" />
            <mxPoint x="314" y="618" as="targetPoint" />
          </mxGeometry>
        </mxCell>
        <mxCell id="p1Tyolbjlcrftdn2_OF1-65" value="" style="endArrow=none;html=1;rounded=0;exitX=0.5;exitY=0.5;exitDx=0;exitDy=0;exitPerimeter=0;fillColor=#f5f5f5;strokeColor=#666666;entryX=0;entryY=0.5;entryDx=0;entryDy=0;" edge="1" parent="1" source="p1Tyolbjlcrftdn2_OF1-4" target="p1Tyolbjlcrftdn2_OF1-51">
          <mxGeometry width="50" height="50" relative="1" as="geometry">
            <mxPoint x="88" y="697" as="sourcePoint" />
            <mxPoint x="282" y="681" as="targetPoint" />
          </mxGeometry>
        </mxCell>
        <mxCell id="p1Tyolbjlcrftdn2_OF1-66" value="" style="endArrow=none;html=1;rounded=0;exitX=0.5;exitY=0.5;exitDx=0;exitDy=0;exitPerimeter=0;fillColor=#f5f5f5;strokeColor=#666666;entryX=0;entryY=0.5;entryDx=0;entryDy=0;" edge="1" parent="1" source="p1Tyolbjlcrftdn2_OF1-4" target="p1Tyolbjlcrftdn2_OF1-52">
          <mxGeometry width="50" height="50" relative="1" as="geometry">
            <mxPoint x="97" y="722" as="sourcePoint" />
            <mxPoint x="291" y="706" as="targetPoint" />
          </mxGeometry>
        </mxCell>
        <mxCell id="p1Tyolbjlcrftdn2_OF1-67" value="" style="endArrow=none;html=1;rounded=0;exitX=0.5;exitY=0.5;exitDx=0;exitDy=0;exitPerimeter=0;fillColor=#f5f5f5;strokeColor=#666666;entryX=0;entryY=0;entryDx=0;entryDy=0;" edge="1" parent="1" source="p1Tyolbjlcrftdn2_OF1-4" target="p1Tyolbjlcrftdn2_OF1-49">
          <mxGeometry width="50" height="50" relative="1" as="geometry">
            <mxPoint x="123" y="739" as="sourcePoint" />
            <mxPoint x="317" y="723" as="targetPoint" />
          </mxGeometry>
        </mxCell>
        <mxCell id="p1Tyolbjlcrftdn2_OF1-68" value="" style="endArrow=none;html=1;rounded=0;exitX=0.5;exitY=0.5;exitDx=0;exitDy=0;exitPerimeter=0;fillColor=#f5f5f5;strokeColor=#666666;entryX=0;entryY=0.5;entryDx=0;entryDy=0;" edge="1" parent="1" source="p1Tyolbjlcrftdn2_OF1-4" target="p1Tyolbjlcrftdn2_OF1-50">
          <mxGeometry width="50" height="50" relative="1" as="geometry">
            <mxPoint x="96" y="755" as="sourcePoint" />
            <mxPoint x="290" y="739" as="targetPoint" />
          </mxGeometry>
        </mxCell>
        <mxCell id="p1Tyolbjlcrftdn2_OF1-69" value="&lt;font style=&quot;font-size: 16px; color: rgb(0, 0, 0);&quot;&gt;Admin&lt;/font&gt;" style="shape=umlActor;verticalLabelPosition=bottom;verticalAlign=top;html=1;outlineConnect=0;strokeColor=#36393d;fillColor=#f9f7ed;" vertex="1" parent="1">
          <mxGeometry x="739" y="218" width="30" height="61" as="geometry" />
        </mxCell>
        <mxCell id="p1Tyolbjlcrftdn2_OF1-70" value="&lt;font style=&quot;color: rgb(0, 0, 0);&quot;&gt;Generate System Performance Reports&lt;/font&gt;" style="ellipse;whiteSpace=wrap;html=1;fillColor=#f5f5f5;strokeColor=#000000;fontColor=#333333;" vertex="1" parent="1">
          <mxGeometry x="512" y="281" width="123" height="52" as="geometry" />
        </mxCell>
        <mxCell id="p1Tyolbjlcrftdn2_OF1-71" value="&lt;font style=&quot;color: rgb(0, 0, 0);&quot;&gt;Handle user Complaints and Feedback&lt;/font&gt;" style="ellipse;whiteSpace=wrap;html=1;fillColor=#f5f5f5;strokeColor=#000000;fontColor=#333333;" vertex="1" parent="1">
          <mxGeometry x="513" y="149" width="120" height="51" as="geometry" />
        </mxCell>
        <mxCell id="p1Tyolbjlcrftdn2_OF1-72" value="&lt;font style=&quot;color: rgb(0, 0, 0);&quot;&gt;Review Content&lt;/font&gt;" style="ellipse;whiteSpace=wrap;html=1;fillColor=#f5f5f5;strokeColor=#000000;fontColor=#333333;" vertex="1" parent="1">
          <mxGeometry x="513" y="228" width="120" height="41" as="geometry" />
        </mxCell>
        <mxCell id="p1Tyolbjlcrftdn2_OF1-73" value="&lt;font style=&quot;color: rgb(0, 0, 0);&quot;&gt;Manage users&lt;/font&gt;" style="ellipse;whiteSpace=wrap;html=1;fillColor=#f5f5f5;strokeColor=#000000;fontColor=#333333;" vertex="1" parent="1">
          <mxGeometry x="515" y="344" width="120" height="41" as="geometry" />
        </mxCell>
        <mxCell id="p1Tyolbjlcrftdn2_OF1-74" value="" style="endArrow=none;html=1;rounded=0;entryX=0.5;entryY=0.5;entryDx=0;entryDy=0;exitX=1;exitY=0.5;exitDx=0;exitDy=0;fillColor=#f5f5f5;strokeColor=#666666;entryPerimeter=0;" edge="1" parent="1" source="p1Tyolbjlcrftdn2_OF1-73" target="p1Tyolbjlcrftdn2_OF1-69">
          <mxGeometry width="50" height="50" relative="1" as="geometry">
            <mxPoint x="681" y="328" as="sourcePoint" />
            <mxPoint x="754" y="243" as="targetPoint" />
          </mxGeometry>
        </mxCell>
        <mxCell id="p1Tyolbjlcrftdn2_OF1-76" value="" style="endArrow=none;html=1;rounded=0;entryX=0.5;entryY=0.5;entryDx=0;entryDy=0;exitX=1;exitY=0.5;exitDx=0;exitDy=0;fillColor=#f5f5f5;strokeColor=#666666;entryPerimeter=0;" edge="1" parent="1" source="p1Tyolbjlcrftdn2_OF1-72" target="p1Tyolbjlcrftdn2_OF1-69">
          <mxGeometry width="50" height="50" relative="1" as="geometry">
            <mxPoint x="654" y="259" as="sourcePoint" />
            <mxPoint x="775" y="330" as="targetPoint" />
          </mxGeometry>
        </mxCell>
        <mxCell id="p1Tyolbjlcrftdn2_OF1-77" value="" style="endArrow=none;html=1;rounded=0;entryX=0.5;entryY=0.5;entryDx=0;entryDy=0;exitX=1;exitY=0.5;exitDx=0;exitDy=0;fillColor=#f5f5f5;strokeColor=#666666;entryPerimeter=0;" edge="1" parent="1" source="p1Tyolbjlcrftdn2_OF1-70" target="p1Tyolbjlcrftdn2_OF1-69">
          <mxGeometry width="50" height="50" relative="1" as="geometry">
            <mxPoint x="679" y="280" as="sourcePoint" />
            <mxPoint x="800" y="280" as="targetPoint" />
          </mxGeometry>
        </mxCell>
        <mxCell id="p1Tyolbjlcrftdn2_OF1-78" value="" style="endArrow=none;html=1;rounded=0;entryX=0.5;entryY=0.5;entryDx=0;entryDy=0;exitX=1;exitY=0.5;exitDx=0;exitDy=0;fillColor=#f5f5f5;strokeColor=#666666;entryPerimeter=0;" edge="1" parent="1" source="p1Tyolbjlcrftdn2_OF1-71" target="p1Tyolbjlcrftdn2_OF1-69">
          <mxGeometry width="50" height="50" relative="1" as="geometry">
            <mxPoint x="642" y="378" as="sourcePoint" />
            <mxPoint x="761" y="325" as="targetPoint" />
          </mxGeometry>
        </mxCell>
      </root>
    </mxGraphModel>
  </diagram>
</mxfile>
